<svg id="denture" enable-background="new 0 0 300 300" height="512" viewBox="0 0 300 300" width="512" xmlns="http://www.w3.org/2000/svg"><g><circle cx="178" cy="137.675" fill="#e5efef" r="92"/><g fill="#4c241d"><circle cx="187.005" cy="34.602" r="4.276"/><path d="m246 61.675c-2.211 0-4-1.791-4-4v-8c0-2.209 1.789-4 4-4s4 1.791 4 4v8c0 2.209-1.789 4-4 4z"/><path d="m246 85.675c-2.211 0-4-1.791-4-4v-8c0-2.209 1.789-4 4-4s4 1.791 4 4v8c0 2.209-1.789 4-4 4z"/><path d="m238 69.675h-8c-2.211 0-4-1.791-4-4s1.789-4 4-4h8c2.211 0 4 1.791 4 4s-1.789 4-4 4z"/><path d="m262 69.675h-8c-2.211 0-4-1.791-4-4s1.789-4 4-4h8c2.211 0 4 1.791 4 4s-1.789 4-4 4z"/><path d="m44 269.675c-7.719 0-14-6.281-14-14s6.281-14 14-14 14 6.281 14 14c0 7.718-6.281 14-14 14zm0-20c-3.309 0-6 2.691-6 6s2.691 6 6 6 6-2.691 6-6-2.691-6-6-6z"/><circle cx="115.005" cy="254.602" r="4.276"/></g><g><path d="m241.338 226.868c-62.807 8.275-120.75 7.703-174.813.073-4.905-.692-8.525-4.939-8.525-9.892v-29.395c0-5.511 4.468-9.979 9.979-9.979h172.041c5.511 0 9.979 4.468 9.979 9.979v29.296c.001 4.996-3.707 9.265-8.661 9.918z" fill="#f4aeab"/><path d="m152.035 236.833c-29.301 0-58.055-1.979-86.07-5.932-6.82-.963-11.965-6.916-11.965-13.851v-29.396c0-7.707 6.273-13.979 13.98-13.979h172.04c7.707 0 13.98 6.271 13.98 13.979v29.297c0 7.004-5.219 12.973-12.137 13.883-30.351 3.999-60.363 5.999-89.828 5.999zm-84.055-55.158c-3.297 0-5.98 2.682-5.98 5.979v29.396c0 2.973 2.184 5.521 5.082 5.93 55.473 7.832 113.926 7.805 173.734-.076 2.957-.391 5.184-2.949 5.184-5.953v-29.297c0-3.297-2.684-5.979-5.98-5.979z" fill="#4c241d"/></g><g><path d="m240.021 157.675h-172.042c-5.511 0-9.979-4.468-9.979-9.979v-34.558c0-4.425 2.905-8.38 7.159-9.601 59.228-17 118.455-17 177.682 0 4.253 1.221 7.159 5.176 7.159 9.601v34.558c0 5.511-4.468 9.979-9.979 9.979z" fill="#ffded5"/><path d="m240.02 161.675h-172.04c-7.707 0-13.98-6.271-13.98-13.979v-34.559c0-6.217 4.137-11.746 10.059-13.445 59.68-17.127 120.199-17.129 179.887 0 5.918 1.699 10.055 7.229 10.055 13.445v34.559c-.001 7.707-6.274 13.979-13.981 13.979zm-86.02-66.825c-29.312 0-58.629 4.178-87.734 12.533-2.512.719-4.266 3.087-4.266 5.754v34.559c0 3.297 2.684 5.979 5.98 5.979h172.04c3.297 0 5.98-2.682 5.98-5.979v-34.559c0-2.668-1.754-5.035-4.262-5.754-29.109-8.355-58.426-12.533-87.738-12.533z" fill="#4c241d"/></g><g><path d="m186 173.675h-32v-24c0-8.837 7.163-16 16-16 8.837 0 16 7.163 16 16z" fill="#fff"/><path d="m186 177.675h-32c-2.211 0-4-1.791-4-4v-24c0-11.027 8.973-20 20-20s20 8.973 20 20v24c0 2.209-1.789 4-4 4zm-28-8h24v-20c0-6.617-5.383-12-12-12s-12 5.383-12 12z" fill="#4c241d"/></g><g><path d="m154 173.675h-32v-24c0-8.837 7.163-16 16-16 8.837 0 16 7.163 16 16z" fill="#fff"/><path d="m154 177.675h-32c-2.211 0-4-1.791-4-4v-24c0-11.027 8.973-20 20-20s20 8.973 20 20v24c0 2.209-1.789 4-4 4zm-28-8h24v-20c0-6.617-5.383-12-12-12s-12 5.383-12 12z" fill="#4c241d"/></g><g><path d="m198 137.675c-6.627 0-12 5.373-12 12v24h24v-24c0-6.628-5.373-12-12-12z" fill="#fff"/><path d="m210 177.675h-24c-2.211 0-4-1.791-4-4v-24c0-8.822 7.176-16 16-16s16 7.178 16 16v24c0 2.209-1.789 4-4 4zm-20-8h16v-20c0-4.412-3.59-8-8-8s-8 3.588-8 8z" fill="#4c241d"/></g><g><path d="m222 133.675c-6.627 0-12 5.373-12 12v24h24v-24c0-6.628-5.373-12-12-12z" fill="#fff"/><path d="m234 173.675h-24c-2.211 0-4-1.791-4-4v-24c0-8.822 7.176-16 16-16s16 7.178 16 16v24c0 2.209-1.789 4-4 4zm-20-8h16v-20c0-4.412-3.59-8-8-8s-8 3.588-8 8z" fill="#4c241d"/></g><g><path d="m86 133.675c-6.627 0-12 5.373-12 12v24h24v-24c0-6.628-5.373-12-12-12z" fill="#fff"/><path d="m98 173.675h-24c-2.211 0-4-1.791-4-4v-24c0-8.822 7.176-16 16-16s16 7.178 16 16v24c0 2.209-1.789 4-4 4zm-20-8h16v-20c0-4.412-3.59-8-8-8s-8 3.588-8 8z" fill="#4c241d"/></g><g><path d="m110 137.675c-6.627 0-12 5.373-12 12v24h24v-24c0-6.628-5.373-12-12-12z" fill="#fff"/><path d="m122 177.675h-24c-2.211 0-4-1.791-4-4v-24c0-8.822 7.176-16 16-16s16 7.178 16 16v24c0 2.209-1.789 4-4 4zm-20-8h16v-20c0-4.412-3.59-8-8-8s-8 3.588-8 8z" fill="#4c241d"/></g><g><path d="m122 173.675h32v19.999c0 8.837-7.163 16-16 16-8.837 0-16-7.163-16-16z" fill="#fff"/><path d="m138 213.675c-11.027 0-20-8.973-20-20v-20c0-2.209 1.789-4 4-4h32c2.211 0 4 1.791 4 4v20c0 11.027-8.973 20-20 20zm-12-36v16c0 6.617 5.383 12 12 12s12-5.383 12-12v-16z" fill="#4c241d"/></g><g><path d="m154 173.675h32v19.999c0 8.837-7.163 16-16 16-8.837 0-16-7.163-16-16z" fill="#fff"/><path d="m170 213.675c-11.027 0-20-8.973-20-20v-20c0-2.209 1.789-4 4-4h32c2.211 0 4 1.791 4 4v20c0 11.027-8.973 20-20 20zm-12-36v16c0 6.617 5.383 12 12 12s12-5.383 12-12v-16z" fill="#4c241d"/></g><g><path d="m222 197.675c6.627 0 12-5.373 12-12v-20h-24v20c0 6.627 5.373 12 12 12z" fill="#fff"/><path d="m222 201.675c-8.824 0-16-7.178-16-16v-20c0-2.209 1.789-4 4-4h24c2.211 0 4 1.791 4 4v20c0 8.822-7.176 16-16 16zm-8-32v16c0 4.412 3.59 8 8 8s8-3.588 8-8v-16z" fill="#4c241d"/></g><g><path d="m86 197.675c6.627 0 12-5.373 12-12v-20h-24v20c0 6.627 5.373 12 12 12z" fill="#fff"/><path d="m86 201.675c-8.824 0-16-7.178-16-16v-20c0-2.209 1.789-4 4-4h24c2.211 0 4 1.791 4 4v20c0 8.822-7.176 16-16 16zm-8-32v16c0 4.412 3.59 8 8 8s8-3.588 8-8v-16z" fill="#4c241d"/></g><g><path d="m198 205.675c6.627 0 12-5.373 12-12v-20h-24v20c0 6.627 5.373 12 12 12z" fill="#fff"/><path d="m198 209.675c-8.824 0-16-7.178-16-16v-20c0-2.209 1.789-4 4-4h24c2.211 0 4 1.791 4 4v20c0 8.822-7.176 16-16 16zm-8-32v16c0 4.412 3.59 8 8 8s8-3.588 8-8v-16z" fill="#4c241d"/></g><g><path d="m110 205.675c6.627 0 12-5.373 12-12v-20h-24v20c0 6.627 5.373 12 12 12z" fill="#fff"/><path d="m110 209.675c-8.824 0-16-7.178-16-16v-20c0-2.209 1.789-4 4-4h24c2.211 0 4 1.791 4 4v20c0 8.822-7.176 16-16 16zm-8-32v16c0 4.412 3.59 8 8 8s8-3.588 8-8v-16z" fill="#4c241d"/></g><path d="m155.824 128.108c-1.023 0-2.047-.391-2.828-1.17-1.562-1.562-1.562-4.096 0-5.658 4.516-4.52 10.527-7.01 16.922-7.01 5.902 0 11.574 2.168 15.969 6.105 1.648 1.473 1.785 4.002.312 5.648-1.48 1.646-4.008 1.785-5.648.309-2.926-2.619-6.703-4.062-10.633-4.062-4.258 0-8.258 1.656-11.266 4.666-.781.782-1.804 1.172-2.828 1.172z" fill="#4c241d"/><g><path d="m64.825 99.547 12.478 6.824-12.478 6.825-6.825 12.479-6.825-12.479-12.478-6.825 12.478-6.824 6.825-12.479z" fill="#ffce56"/><path d="m58 129.675c-1.461 0-2.809-.799-3.508-2.08l-6.262-11.451-11.453-6.262c-1.285-.701-2.082-2.047-2.082-3.51s.797-2.809 2.082-3.51l11.453-6.262 6.262-11.451c1.398-2.562 5.617-2.562 7.016 0l6.262 11.451 11.453 6.262c1.285.701 2.082 2.047 2.082 3.51s-.797 2.809-2.082 3.51l-11.453 6.262-6.262 11.451c-.699 1.281-2.047 2.08-3.508 2.08zm-10.969-23.303 6.062 3.314c.672.367 1.223.92 1.59 1.59l3.317 6.063 3.316-6.062c.367-.67.918-1.223 1.59-1.59l6.062-3.314-6.062-3.314c-.672-.367-1.223-.92-1.59-1.59l-3.316-6.064-3.316 6.062c-.367.67-.918 1.223-1.59 1.59z" fill="#4c241d"/></g></g></svg>