<svg height="512pt" viewBox="0 -13 512 512" width="512pt" xmlns="http://www.w3.org/2000/svg"><path d="m499.5 330.730469h-38.621094c-16.113281 0-31.714844-4.734375-45.117187-13.691407-9.546875-6.378906-19.417969-12.140624-29.554688-17.300781 6.644531-16.308593 15.171875-31.539062 24.035157-47.339843 3.035156-5.410157 6.171874-11.003907 9.25-16.671876 16.574218-30.542968 26.429687-56.675781 31.019531-82.25 4.925781-27.46875 2.648437-57.929687-6.25-83.570312-10.609375-30.574219-29.5625-52.503906-54.8125-63.417969-19.589844-8.46875-44.679688-8.632812-69.519531-.574219-11.722657 3.800782-22.25 7.277344-34.554688 8.632813-8.917969.988281-17.953125 1.101563-26.882812.230469-.453126-.042969-.902344-.089844-1.351563-.140625-9.394531-1.019531-18.425781-3.101563-27.351563-6.074219-4.503906-1.5-8.964843-3.140625-13.550781-4.386719-7.410156-2.019531-15.011719-3.371093-22.679687-3.910156-13.878906-.976563-28.171875.671875-41.019532 6.222656-12.175781 5.261719-23.019531 13.261719-31.84375 23.148438-11.480468 12.859375-18.6875 26.980469-23.929687 43.214843-1.953125 6.042969-3.605469 12.617188-4.792969 18.871094-.050781.269532-.097656.539063-.148437.808594-.847657 4.578125-1.554688 9.535156-2.015625 14.148438-.476563 4.785156-.761719 9.652343-.847656 14.472656-.148438 8.5625.40625 18.25 1.652343 26.925781.027344.191406.058594.382813.085938.574219 2.613281 17.761718 8.4375 36.40625 15.292969 52.875.003906.011718.011718.023437.015624.039062 4.523438 10.867188 9.980469 22.171875 16.488282 34.160156 3.078125 5.671876 6.214844 11.265626 9.25 16.671876 6.746094 12.027343 13.300781 23.714843 18.976562 35.804687-14.875 5.855469-29.335937 12.960937-43.214844 21.296875-3.550781 2.132812-4.699218 6.738281-2.566406 10.289062 2.132813 3.554688 6.742188 4.703126 10.292969 2.570313 13.304687-7.992187 27.179687-14.796875 41.453125-20.382813 3.011719 7.644532 5.601562 15.542969 7.601562 23.863282.203126.855468.40625 1.734375.613282 2.636718 2.042968 8.863282 4.835937 21.003907 14.863281 27.316407 5.734375 3.609375 12.601563 5.414062 19.34375 5.414062 6.667969 0 13.21875-1.765625 18.425781-5.308593 19.347656-13.148438 19.347656-42.558594 19.347656-58.355469 0-4.808594.261719-9.339844.789063-13.660157 5.707031-.375 11.433594-.566406 17.164063-.566406 16.859374 0 33.539062 1.539063 49.882812 4.539063.253906 3.113281.390625 6.328125.390625 9.6875 0 15.800781 0 45.210937 19.347656 58.355469 10.476563 7.121093 26.359375 7.074218 37.769531-.105469 10.027344-6.3125 12.820313-18.453125 14.863282-27.316407.207031-.898437.40625-1.78125.613281-2.636718.976563-4.058594 2.105469-8.007813 3.339844-11.886719 9.039062 4.675781 17.847656 9.855469 26.382812 15.558594 15.878907 10.613281 34.359375 16.222656 53.453125 16.222656h36.121094v125.058594h-482v-125.0625h35.488281c11.421875 0 22.632813-2.003907 33.332031-5.953125 3.886719-1.4375 5.871094-5.75 4.4375-9.636719-1.4375-3.886719-5.75-5.867187-9.636718-4.4375-9.027344 3.335937-18.492188 5.027344-28.132813 5.027344h-37.988281c-6.894531 0-12.5 5.605469-12.5 12.5v130.0625c0 6.894531 5.605469 12.5 12.5 12.5h487c6.894531 0 12.5-5.605469 12.5-12.5v-130.0625c0-6.894531-5.605469-12.5-12.5-12.5zm-381.519531-139.550781c-.023438-.0625-.046875-.128907-.070313-.191407-2.710937-6.875-5.089844-13.738281-7.144531-20.875-3.257813-11.3125-5.398437-21.636719-6.351563-33.503906-1.230468-15.34375-.242187-30.5625 2.980469-45.53125.039063-.179687.082031-.355469.121094-.535156 1.238281-5.597657 2.796875-11.089844 4.6875-16.40625l16.933594 15.882812c3.449219 3.234375 7.71875 5.453125 12.351562 6.414063l10.949219 2.269531c3.230469.671875 5.925781 2.746094 7.394531 5.699219 2.882813 5.800781-.820312 11.21875-3.257812 16.363281-3.007813 6.34375-3.273438 13.738281-.726563 20.289063l5.675782 14.617187c1.199218 3.078125 1.65625 6.453125 1.324218 9.761719-.722656 7.0625-4.027344 13.582031-9.304687 18.351562-5.277344 4.769532-12.101563 7.394532-19.210938 7.394532zm136.851562 77.132812c-4.65625 0-9.304687.132812-13.949219.367188 2.1875-7.128907 4.957032-12.828126 8.441407-17.339844 1.160156-1.5 2.761719-2.972656 4.757812-4.371094 10.117188-7.085938 23.710938-7.085938 33.824219 0 1.996094 1.398438 3.597656 2.871094 4.757812 4.371094 3.894532 5.039062 6.898438 11.542968 9.1875 19.886718.085938.3125.15625.628907.238282.9375-15.519532-2.546874-31.3125-3.851562-47.257813-3.851562zm108.285157 54.019531c-.214844.902344-.429688 1.828125-.644532 2.777344-1.617187 7.015625-3.449218 14.972656-8.234375 17.984375-6.28125 3.953125-15.855469 4.128906-21.351562.394531-12.777344-8.683593-12.777344-33.851562-12.777344-45.949219 0-11.082031-1.238281-20.988281-3.789063-30.285156-2.816406-10.265625-6.671874-18.472656-11.78125-25.085937-2.085937-2.699219-4.789062-5.21875-8.023437-7.488281-7.632813-5.34375-16.574219-8.015626-25.519531-8.015626-8.945313 0-17.886719 2.671876-25.519532 8.015626-3.238281 2.269531-5.9375 4.789062-8.019531 7.488281-5.113281 6.613281-8.96875 14.820312-11.785156 25.085937-2.550781 9.296875-3.789063 19.199219-3.789063 30.285156 0 12.097657 0 37.265626-12.777343 45.949219-5.496094 3.734375-15.074219 3.554688-21.351563-.394531-4.785156-3.011719-6.617187-10.96875-8.234375-17.984375-.214843-.949219-.429687-1.875-.644531-2.773437-6.976562-29.023438-20.125-52.464844-34.042969-77.277344-3.011719-5.363282-6.121093-10.910156-9.148437-16.488282-4.210938-7.753906-7.949219-15.191406-11.269532-22.390624h9.917969c10.835938 0 21.230469-4.003907 29.269531-11.265626 8.042969-7.269531 13.074219-17.207031 14.171876-27.988281.566406-5.652343-.21875-11.429687-2.269532-16.691406l-5.671875-14.613281c-1.058593-2.726563-.953125-5.796875.300781-8.429688l3.335938-7.042968c3.398438-7.15625 3.324219-15.328126-.203125-22.425782-3.53125-7.101562-10.011719-12.097656-17.78125-13.707031l-10.949219-2.269531c-1.925781-.398438-3.699218-1.320313-5.132812-2.667969l-20.878906-19.585937c8.949218-17.335938 22.148437-31.535157 39.96875-39.238282 16.78125-7.253906 38.863281-6.996094 60.910156.605469-1.832032 3.324219-3.46875 7.035156-4.484375 11.070313-.007813.035156-.019531.074218-.027344.109374-2.066406 8.769532-.144531 20.394532 8.800781 26.59375 6.828125 4.726563 14.5 4.355469 21.273438 4.019532 4.675781-.226563 9.089844-.445313 11.878906 1.167968 2.644531 1.527344 4.492188 4.992188 6.632812 9.003907 2.441407 4.574219 5.207032 9.761719 10.128907 13.546875 4.453125 3.429687 9.582031 4.898437 14.824219 4.898437 9.660156 0 19.703124-4.988281 26.59375-11.90625 1.625-1.632812 3.257812-3.453125 4.980468-5.574219 2.617188-3.210937 2.132813-7.9375-1.078125-10.550781-3.210937-2.617187-7.9375-2.132812-10.550781 1.078125-1.40625 1.726563-2.707031 3.1875-3.976562 4.457032-6.066407 6.089843-16.066407 10.003906-21.644532 5.710937-2.359375-1.8125-4.148437-5.167969-6.042968-8.71875-2.816407-5.277344-6.003907-11.253906-12.359376-14.933594-6.621093-3.820312-13.792968-3.46875-20.121093-3.160156-5.023438.246094-9.359375.460937-11.996094-1.367187-2.976563-2.058594-3.636719-6.96875-2.753906-10.773438.902343-3.570312 2.628906-6.925781 4.550781-9.972656.039062.011718.082031.019531.125.03125 13.910156 3.707031 28.386719 5.257812 42.769531 4.664062 7.179688-.292968 14.335938-1.121094 21.394531-2.484375 3.523438-.679687 7.027344-1.480469 10.484376-2.4375 3.59375-.996093 38.820312-11.089843 38.882812-9.941406.265625 4.984375-.394531 8.78125-2.003906 11.570313-2.058594 3.566406-6.164063 6.304687-10.507813 9.199218l-1.445312.96875c-3.4375 2.3125-4.351563 6.972656-2.039063 10.410156 2.3125 3.433594 6.972656 4.347657 10.410156 2.035157l1.394532-.933594c5.328125-3.550781 11.367187-7.578125 15.183594-14.183594 3.007812-5.222656 4.308593-11.527343 4-19.195312 7.496093.625 14.53125 2.273437 20.820312 4.992187 45.609375 19.714844 60.960938 81.988282 52.246094 130.570313-4.292969 23.953125-13.648438 48.65625-29.4375 77.746093-3.027344 5.578126-6.136719 11.125-9.148438 16.488282-13.917968 24.816406-27.066406 48.253906-34.042968 77.273437zm0 0"/><path d="m401.082031 176.84375c1.824219-6 3.398438-11.1875 6.917969-14.011719.96875-.773437 2.285156-1.511719 3.675781-2.292969 1.628907-.914062 3.472657-1.949218 5.257813-3.3125 9.566406-7.308593 13.152344-21.433593 8.523437-33.582031-3.769531-9.882812-12.429687-18.117187-23.761719-22.59375-2.863281-1.132812-5.796874-3.367187-8.90625-5.730469-7.523437-5.722656-17.828124-13.5625-31.921874-6.304687-7.710938 3.96875-12.234376 11-16.226563 17.203125-3.335937 5.1875-6.492187 10.089844-10.769531 12.070312-4.066406 1.886719-9.253906 1.320313-15.261719.667969-5.296875-.578125-10.777344-1.175781-16.519531-.203125-8.433594 1.433594-16.125 6.242188-21.105469 13.191406-4.992187 6.960938-6.675781 15.507813-4.5 22.863282 3.03125 10.261718 13.144531 17.757812 27.050781 20.054687 3.4375.566407 6.835938.851563 10.121094 1.128907 5.515625.460937 10.722656.894531 15.242188 2.597656 5.117187 1.925781 9.746093 5.617187 14.648437 9.527344 3.121094 2.484374 6.351563 5.0625 9.902344 7.339843 5.71875 3.671875 12.277343 5.976563 18.46875 6.492188.910156.074219 1.804687.113281 2.6875.113281 6.84375 0 12.753906-2.277344 17.222656-6.667969 2.660156-2.609375 4.71875-5.882812 6.480469-10.296875 1.101562-2.75 1.949218-5.546875 2.773437-8.253906zm-14.351562-4.359375c-.765625 2.515625-1.488281 4.894531-2.351563 7.054687-.949218 2.382813-1.953125 4.070313-3.0625 5.160157-4.328125 4.25-13.414062 2.210937-19.769531-1.863281-2.902344-1.863282-5.695313-4.089844-8.648437-6.445313-5.597657-4.460937-11.382813-9.074219-18.714844-11.835937-6.476563-2.4375-12.984375-2.980469-19.277344-3.507813-3.128906-.261719-6.082031-.511719-8.925781-.980469-6.253907-1.03125-13.507813-4.074218-15.113281-9.507812-.859376-2.90625.023437-6.6875 2.304687-9.871094 2.660156-3.707031 6.929687-6.378906 11.429687-7.140625 1.273438-.21875 2.613282-.304687 4.007813-.304687 2.628906 0 5.449219.308593 8.375.625 7.191406.785156 15.34375 1.675781 23.195313-1.96875 8.230468-3.8125 12.929687-11.117188 17.074218-17.5625 3.261719-5.066407 6.34375-9.855469 10.480469-11.984376 5.210937-2.683593 8.347656-.894531 15.972656 4.910157 3.605469 2.738281 7.691407 5.847656 12.480469 7.738281 7.421875 2.933594 12.980469 8.03125 15.25 13.984375 2.246094 5.890625.660156 13.058594-3.605469 16.320313-.945312.722656-2.183593 1.414062-3.492187 2.148437-1.777344.996094-3.792969 2.125-5.726563 3.679687-7.136719 5.726563-9.660156 14.027344-11.882812 21.351563zm0 0"/></svg>