<svg id="dentist_x5F_chair" enable-background="new 0 0 300 300" height="512" viewBox="0 0 300 300" width="512" xmlns="http://www.w3.org/2000/svg"><g><circle cx="34.641" cy="260.927" fill="#4c241d" r="4.276"/><circle cx="173.635" cy="128" fill="#e5efef" r="92"/><path d="m61.635 200c-2.211 0-4-1.791-4-4v-8c0-2.209 1.789-4 4-4s4 1.791 4 4v8c0 2.209-1.789 4-4 4z" fill="#4c241d"/><path d="m61.635 224c-2.211 0-4-1.791-4-4v-8c0-2.209 1.789-4 4-4s4 1.791 4 4v8c0 2.209-1.789 4-4 4z" fill="#4c241d"/><path d="m53.635 208h-8c-2.211 0-4-1.791-4-4s1.789-4 4-4h8c2.211 0 4 1.791 4 4s-1.789 4-4 4z" fill="#4c241d"/><path d="m77.635 208h-8c-2.211 0-4-1.791-4-4s1.789-4 4-4h8c2.211 0 4 1.791 4 4s-1.789 4-4 4z" fill="#4c241d"/><path d="m255.635 108c-7.719 0-14-6.281-14-14s6.281-14 14-14 14 6.281 14 14-6.281 14-14 14zm0-20c-3.309 0-6 2.691-6 6s2.691 6 6 6 6-2.691 6-6-2.691-6-6-6z" fill="#4c241d"/><circle cx="218.641" cy="40.927" fill="#4c241d" r="4.276"/><g><path d="m57.635 124c-6.627 0-12-5.373-12-12v-16c0-6.627 5.373-12 12-12 6.627 0 12 5.373 12 12v16c0 6.627-5.372 12-12 12z" fill="#9dc1e4"/><path d="m57.635 128c-8.824 0-16-7.178-16-16v-16c0-8.822 7.176-16 16-16s16 7.178 16 16v16c0 8.822-7.175 16-16 16zm0-40c-4.41 0-8 3.588-8 8v16c0 4.412 3.59 8 8 8s8-3.588 8-8v-16c0-4.412-3.589-8-8-8z" fill="#4c241d"/></g><path d="m57.635 144c-2.211 0-4-1.791-4-4v-16c0-2.209 1.789-4 4-4s4 1.791 4 4v16c0 2.209-1.789 4-4 4z" fill="#4c241d"/><g><path d="m89.635 244h128v20h-128z" fill="#6b4f5b"/><path d="m217.635 268h-128c-2.211 0-4-1.791-4-4v-20c0-2.209 1.789-4 4-4h128c2.211 0 4 1.791 4 4v20c0 2.209-1.789 4-4 4zm-124-8h120v-12h-120z" fill="#4c241d"/></g><g><path d="m145.635 188h24v28h-24z" fill="#b5a19c"/><path d="m169.635 220h-24c-2.211 0-4-1.791-4-4v-28c0-2.209 1.789-4 4-4h24c2.211 0 4 1.791 4 4v28c0 2.209-1.789 4-4 4zm-20-8h16v-20h-16z" fill="#4c241d"/></g><g><path d="m223.635 136h-92c-3.314 0-6-2.686-6-6 0-3.314 2.686-6 6-6h92c3.314 0 6 2.686 6 6 0 3.314-2.686 6-6 6z" fill="#fff"/><path d="m223.635 140h-92c-5.516 0-10-4.486-10-10s4.484-10 10-10h92c5.516 0 10 4.486 10 10s-4.484 10-10 10zm-92-12c-1.102 0-2 .896-2 2s.898 2 2 2h92c1.102 0 2-.896 2-2s-.898-2-2-2z" fill="#4c241d"/></g><g><path d="m169.635 136h12v40h-12z" fill="#fff"/><path d="m181.635 180h-12c-2.211 0-4-1.791-4-4v-40c0-2.209 1.789-4 4-4h12c2.211 0 4 1.791 4 4v40c0 2.209-1.789 4-4 4zm-8-8h4v-32h-4z" fill="#4c241d"/></g><path d="m181.635 128c-2.211 0-4-1.791-4-4v-68c0-8.822-7.176-16-16-16h-20c-8.824 0-16 7.178-16 16 0 2.209-1.789 4-4 4s-4-1.791-4-4c0-13.234 10.766-24 24-24h20c13.234 0 24 10.766 24 24v68c0 2.209-1.789 4-4 4z" fill="#4c241d"/><g><path d="m105.635 64c0-8.837 7.163-16 16-16s16 7.163 16 16z" fill="#fff"/><path d="m137.635 68h-32c-2.211 0-4-1.791-4-4 0-11.027 8.973-20 20-20s20 8.973 20 20c0 2.209-1.789 4-4 4zm-27.316-8h22.633c-1.652-4.656-6.102-8-11.316-8s-9.665 3.344-11.317 8z" fill="#4c241d"/></g><g><path d="m63.491 159.595 39.976 24.542c8.375 5.142 18.01 7.863 27.837 7.863h45.483c8.02 0 15.908 2.049 22.915 5.952l43.46 24.212c4.696 2.616 10.474-.779 10.474-6.155 0-2.486-1.31-4.788-3.448-6.058l-44.611-26.493c-8.221-4.882-17.606-7.459-27.168-7.459h-44.383c-8.98 0-17.772-2.568-25.34-7.401l-51.051-32.598v13.129c0 4.269 2.218 8.232 5.856 10.466z" fill="#9dc1e4"/><path d="m246.593 227.07c-1.844 0-3.688-.471-5.379-1.412l-43.457-24.211c-6.398-3.564-13.648-5.447-20.969-5.447h-45.484c-10.57 0-20.922-2.924-29.93-8.455l-39.977-24.541c-4.789-2.941-7.762-8.258-7.762-13.875v-13.129c0-1.461.797-2.807 2.078-3.508 1.289-.699 2.84-.648 4.074.137l51.051 32.6c6.938 4.43 14.957 6.771 23.187 6.771h44.383c10.273 0 20.375 2.773 29.211 8.02l44.609 26.494c3.332 1.979 5.406 5.617 5.406 9.496 0 3.959-2.039 7.52-5.449 9.523-1.745 1.024-3.667 1.537-5.592 1.537zm-181.008-70.882 39.977 24.541c7.746 4.758 16.648 7.271 25.742 7.271h45.484c8.68 0 17.277 2.234 24.859 6.459l43.461 24.211c1.379.768 2.574.23 3.023-.033.453-.266 1.504-1.053 1.504-2.627 0-1.068-.57-2.07-1.488-2.615l-44.613-26.496c-7.598-4.514-16.289-6.898-25.125-6.898h-44.383c-9.762 0-19.266-2.777-27.492-8.029l-44.898-28.67v5.828c-.001 2.856 1.511 5.561 3.949 7.058z" fill="#4c241d"/></g><g><path d="m157.636 208c-11.046 0-20 8.954-20 20v16h40v-16c-.001-11.046-8.955-20-20-20z" fill="#c1dbdc"/><path d="m177.635 248h-40c-2.211 0-4-1.791-4-4v-16c0-13.234 10.766-24 24-24s24 10.766 24 24v16c0 2.209-1.789 4-4 4zm-36-8h32v-12c0-8.822-7.176-16-16-16s-16 7.178-16 16z" fill="#4c241d"/></g><g fill="#4c241d"><path d="m105.635 268c-2.211 0-4-1.791-4-4v-20c0-2.209 1.789-4 4-4s4 1.791 4 4v20c0 2.209-1.789 4-4 4z"/><path d="m121.635 268c-2.211 0-4-1.791-4-4v-20c0-2.209 1.789-4 4-4s4 1.791 4 4v20c0 2.209-1.789 4-4 4z"/><path d="m137.635 268c-2.211 0-4-1.791-4-4v-20c0-2.209 1.789-4 4-4s4 1.791 4 4v20c0 2.209-1.789 4-4 4z"/><path d="m153.635 268c-2.211 0-4-1.791-4-4v-20c0-2.209 1.789-4 4-4s4 1.791 4 4v20c0 2.209-1.789 4-4 4z"/><path d="m169.635 268c-2.211 0-4-1.791-4-4v-20c0-2.209 1.789-4 4-4s4 1.791 4 4v20c0 2.209-1.789 4-4 4z"/><path d="m201.635 268c-2.211 0-4-1.791-4-4v-20c0-2.209 1.789-4 4-4s4 1.791 4 4v20c0 2.209-1.789 4-4 4z"/><path d="m185.635 268c-2.211 0-4-1.791-4-4v-20c0-2.209 1.789-4 4-4s4 1.791 4 4v20c0 2.209-1.789 4-4 4z"/><path d="m121.635 96c-2.211 0-4-1.791-4-4v-12c0-2.209 1.789-4 4-4s4 1.791 4 4v12c0 2.209-1.789 4-4 4z"/><path d="m144.35 94.068c-1.293 0-2.562-.625-3.332-1.781l-6.711-10.068c-1.227-1.838-.73-4.322 1.109-5.547 1.844-1.229 4.324-.727 5.547 1.109l6.711 10.068c1.227 1.838.73 4.322-1.109 5.547-.683.456-1.453.672-2.215.672z"/><path d="m98.921 94.068c-.762 0-1.531-.217-2.215-.672-1.84-1.225-2.336-3.709-1.109-5.547l6.711-10.068c1.223-1.836 3.699-2.338 5.547-1.109 1.84 1.225 2.336 3.709 1.109 5.547l-6.711 10.068c-.77 1.156-2.039 1.781-3.332 1.781z"/><circle cx="157.635" cy="224" r="4"/></g></g></svg>