<svg id="pliers" enable-background="new 0 0 300 300" height="512" viewBox="0 0 300 300" width="512" xmlns="http://www.w3.org/2000/svg"><g><path d="m169.982 50.359c2.362 0 4.276-1.915 4.276-4.277s-1.915-4.276-4.276-4.276-4.276 1.915-4.276 4.276 1.914 4.277 4.276 4.277z"/><path d="m239.368 101.894c2.209 0 4-1.791 4-4v-8c0-2.209-1.791-4-4-4s-4 1.791-4 4v8c0 2.209 1.791 4 4 4z"/><path d="m239.368 109.894c-2.209 0-4 1.791-4 4v8c0 2.209 1.791 4 4 4s4-1.791 4-4v-8c0-2.209-1.791-4-4-4z"/><path d="m223.368 109.894h8c2.209 0 4-1.791 4-4s-1.791-4-4-4h-8c-2.209 0-4 1.791-4 4s1.791 4 4 4z"/><path d="m247.368 109.894h8c2.209 0 4-1.791 4-4s-1.791-4-4-4h-8c-2.209 0-4 1.791-4 4s1.791 4 4 4z"/><path d="m53.368 221.894c-7.719 0-14 6.281-14 14s6.281 14 14 14 14-6.281 14-14-6.282-14-14-14zm0 20c-3.309 0-6-2.691-6-6s2.691-6 6-6 6 2.691 6 6-2.692 6-6 6z"/><path d="m145.982 237.806c-2.362 0-4.276 1.915-4.276 4.276s1.915 4.277 4.276 4.277 4.276-1.915 4.276-4.277-1.914-4.276-4.276-4.276z"/><path d="m258.991 199.776-62.227-62.227c-1.562-1.562-4.094-1.562-5.656 0l-5.657 5.657-16.97-16.97c-4.797-4.798-11.314-7.203-17.876-6.962 4.07-8.865 2.538-19.689-4.752-26.979-2.23-2.231-4.808-3.894-7.547-5.061-3.719-12.33-15.171-21.341-28.697-21.341-5.037 0-10.018 1.277-14.4 3.691-4.605 2.537-9.887 2.537-14.496 0-4.385-2.414-9.365-3.691-14.402-3.691-16.529 0-29.979 13.449-29.979 29.979 0 .25.023.5.07.746l7.893 41.551 6.068 54.607c.463 4.172 3.418 7.418 7.527 8.27 4.113.838 8.113-.955 10.195-4.6l16.637-29.115c.969-1.695 2.586-1.879 3.236-1.879.652 0 2.27.184 3.238 1.879l16.637 29.113c1.74 3.047 4.82 4.809 8.186 4.809.662 0 1.334-.068 2.01-.207 4.111-.852 7.066-4.098 7.529-8.27l3.636-32.788c.758 1.057 1.578 2.078 2.518 3.018l16.97 16.97-5.657 5.657c-1.562 1.562-1.562 4.094 0 5.656l62.227 62.227c3.119 3.119 7.215 4.678 11.312 4.678s8.195-1.559 11.314-4.678v-.002c6.238-6.238 6.238-16.387 0-22.625l-62.227-62.227c-1.562-1.562-4.094-1.562-5.656 0l-5.657 5.657-16.97-16.97c-3.292-3.295-4.912-7.775-4.633-12.295 1.474.518 3.024.838 4.633.838 3.74 0 7.256-1.457 9.898-4.1 2.645-2.645 4.102-6.16 4.102-9.9 0-1.612-.321-3.164-.841-4.641 4.503-.272 9.006 1.351 12.298 4.641l16.97 16.97-5.657 5.657c-1.562 1.562-1.562 4.094 0 5.656l62.227 62.227c3.119 3.119 7.215 4.678 11.312 4.678s8.195-1.559 11.314-4.678c6.238-6.239 6.238-16.389 0-22.626zm-96.168-22.628 59.398 59.398c3.117 3.119 3.117 8.193 0 11.314-3.121 3.117-8.197 3.117-11.314 0l-59.398-59.398zm-17.942-67.881c0 3.469-1.145 6.739-3.174 9.475-2.031-.63-4.177-.813-6.285-.535l3.965-20.913c.263.231.556.408.808.659 3.022 3.021 4.686 7.04 4.686 11.314zm-27.273 82.627c-.107.953-.799 1.234-1.201 1.318-.4.09-1.148.098-1.627-.734l-16.639-29.115c-2.113-3.701-5.92-5.91-10.184-5.91-4.262 0-8.068 2.209-10.182 5.91l-16.637 29.115c-.479.832-1.219.824-1.627.734-.402-.084-1.094-.365-1.201-1.318l-6.113-54.912-7.865-41.471c.195-11.953 9.979-21.617 21.977-21.617 3.691 0 7.336.934 10.545 2.699 7.057 3.883 15.154 3.883 22.211 0 3.207-1.766 6.852-2.699 10.543-2.699 8.263 0 15.39 4.637 19.144 11.396-6.102.033-12.194 2.36-16.839 7.007-1.562 1.562-1.562 4.094 0 5.656s4.094 1.562 5.656 0c3.75-3.75 8.907-5.199 13.782-4.442.073.669.222 1.315.233 2.001l-5.294 27.916c-1.863 2.429-2.923 5.354-2.923 8.467 0 1.33.246 2.61.603 3.854-.006.027-.025.046-.03.074l-.075.667c-6.161 4.174-15.068 3.604-20.438-1.766-6.238-6.238-6.238-16.389 0-22.627 1.562-1.562 1.562-4.094 0-5.656s-4.094-1.562-5.656 0c-9.357 9.357-9.357 24.582 0 33.939 4.678 4.68 10.824 7.02 16.971 7.02 2.735 0 5.452-.539 8.057-1.465zm24-55.758c-2.262 2.266-6.217 2.268-8.482-.002-1.133-1.131-1.758-2.639-1.758-4.24s.625-3.109 1.76-4.242c1.131-1.133 2.639-1.758 4.24-1.758s3.109.625 4.24 1.758c.002 0 .002 0 .002.002 1.133 1.131 1.758 2.639 1.758 4.24s-.625 3.109-1.76 4.242zm111.726 80.611c-3.121 3.117-8.197 3.117-11.314 0l-59.398-59.398 11.314-11.314 59.398 59.398c3.118 3.119 3.118 8.193 0 11.314z"/></g></svg>