<svg height="512pt" viewBox="0 0 512 512" width="512pt" xmlns="http://www.w3.org/2000/svg"><path d="m486.398438 0h-460.796876c-14.140624 0-25.601562 11.460938-25.601562 25.601562v358.398438c0 14.136719 11.460938 25.601562 25.601562 25.601562h162.132813v34.132813c-23.554687.027344-42.640625 19.113281-42.667969 42.664063v17.066406c0 4.714844 3.820313 8.535156 8.535156 8.535156h204.796876c4.714843 0 8.535156-3.820312 8.535156-8.535156v-17.066406c-.027344-23.550782-19.113282-42.636719-42.667969-42.664063v-34.132813h78.953125c2.921875 2.230469 6.492188 3.441407 10.171875 3.453126.800781-.046876 1.597656-.152344 2.386719-.3125l50.144531 86.851562c3.246094 5.703125 8.648437 9.867188 14.992187 11.554688 2.105469.5625 4.277344.851562 6.457032.851562 4.316406-.003906 8.554687-1.148438 12.28125-3.320312 11.75-6.867188 15.792968-21.90625 9.070312-33.738282l-37.742187-65.339844h15.417969c14.140624 0 25.601562-11.464843 25.601562-25.601562v-358.398438c0-14.140624-11.460938-25.601562-25.601562-25.601562zm-469.332032 25.601562c0-4.714843 3.820313-8.535156 8.535156-8.535156h460.796876c4.714843 0 8.535156 3.820313 8.535156 8.535156v298.664063h-33.28125c11.242187-33.925781 1.097656-71.289063-25.757813-94.875-26.859375-23.582031-65.222656-28.8125-97.410156-13.277344 2.25-7.691406 5.304687-15.128906 9.113281-22.183593 2.175782-4.113282 4.566406-8.054688 6.945313-12 4.734375-7.359376 8.828125-15.117188 12.226562-23.183594 11.753907-30.011719 14.839844-71.195313-11.78125-96.707032-25.304687-24.363281-69.820312-25.730468-98.988281-4.261718-29.160156-21.460938-73.675781-20.109375-98.988281 4.199218-26.707031 25.542969-23.636719 66.730469-11.859375 96.742188 3.433594 8.144531 7.5625 15.976562 12.347656 23.40625 2.355469 3.894531 4.71875 7.785156 6.886719 11.847656 6.210937 10.984375 10.265625 23.058594 11.945312 35.566406 1.324219 15.046876 3.859375 29.960938 7.578125 44.601563 2.875 10.753906 8.890625 33.058594 28.886719 33.058594 6.40625 0 23.464844 0 34.34375-78.078125 1.777344-12.535156 6.164063-14.277344 8.867187-14.703125 2.84375.476562 7.058594 2.304687 8.78125 14.660156 7.226563 51.984375 17.066407 68.128906 23.484376 73.777344.484374 7.28125 1.867187 14.472656 4.113281 21.410156h-275.320313zm400.476563 368.023438-2.046875 1.1875c-.058594 0-.117188 0-.179688.058594-.058594.058594-.085937.085937-.136718.121094l-1.78125 1.03125-8.6875-14.984376c11.835937-3.671874 22.722656-9.882812 31.90625-18.203124l8.53125 14.839843zm-135.859375-166.878906c-3.105469-22.277344-15.144532-28.285156-24.695313-29.394532-.371093 0-.742187.03125-1.109375.085938-.28125-.042969-.566406-.070312-.851562-.078125-9.539063 1.058594-21.582032 7.023437-24.746094 29.40625-6.65625 47.734375-15.410156 62.054687-17.453125 63.394531-6.382813 0-9.75-10.546875-12.429687-20.480468-3.472657-13.800782-5.84375-27.851563-7.085938-42.027344-1.910156-14.644532-6.609375-28.789063-13.839844-41.667969-2.304687-4.335937-4.820312-8.535156-7.339844-12.65625-4.285156-6.605469-7.996093-13.566406-11.089843-20.804687-9.3125-23.738282-12.871094-58.460938 7.730469-78.199219 20.597656-19.738281 59.382812-19.359375 81.449218.785156.085938.078125.195313.09375.289063.171875s.128906.195312.230469.273438c.257812.195312 25.679687 20.164062 31.933593 41.472656 1.0625 3.632812 4.394531 6.132812 8.183594 6.132812.8125 0 1.625-.117187 2.40625-.347656 2.171875-.636719 4.003906-2.113281 5.089844-4.101562 1.085937-1.988282 1.335937-4.324219.695312-6.496094-6.117187-16.527344-16.246093-31.269532-29.484375-42.898438 22.546875-14.121094 55.304688-12.59375 73.628906 5.027344 20.53125 19.703125 17.421876 53.304688 7.679688 78.191406-3.054688 7.160156-6.714844 14.042969-10.941406 20.582032-2.558594 4.214843-5.121094 8.4375-7.421875 12.796874-7.238281 12.929688-11.9375 27.121094-13.84375 41.816407l-.179688 1.476562c-13.179687 11.507813-22.675781 26.644531-27.304687 43.519531-4.421875-15.039062-7.597656-30.417968-9.5-45.980468zm59.367187 7.210937c25.261719-14.585937 56.828125-12.519531 79.972657 5.234375 23.144531 17.757813 33.3125 47.710938 25.761718 75.886719-7.546875 28.179687-31.328125 49.035156-60.25 52.84375s-57.292968-10.183594-71.878906-35.445313c-9.683594-16.539062-12.339844-36.261718-7.382812-54.773437 4.960937-18.511719 17.125-34.265625 33.777343-43.746094zm-323.984375 150.042969v-42.667969h283.015625c17.679688 30.710938 52 47.882813 87.175781 43.613281l4.421876 7.589844h-366.078126c-4.714843 0-8.535156-3.824218-8.535156-8.535156zm332.800782 102.398438v8.535156h-187.734376v-8.535156c0-14.136719 11.460938-25.597657 25.601563-25.597657h136.53125c14.140625 0 25.601563 11.460938 25.601563 25.597657zm-42.667969-42.664063h-102.398438v-34.132813h102.398438zm183.886719 50.210937c-1.730469 1.003907-3.796876 1.273438-5.726563.742188-1.960937-.527344-3.628906-1.824219-4.625-3.59375l-49.492187-85.691406 13.191406-7.628906 49.492187 85.691406c2.109375 3.679687.835938 8.367187-2.839843 10.480468zm3.847656-109.945312c0 4.710938-3.820313 8.535156-8.535156 8.535156h-25.273438l-2.5625-4.40625c4.257812-5.492187 4.816406-13 1.417969-19.0625l-11.296875-19.523437c1.941406-2.636719 3.734375-5.375 5.375-8.210938h40.875zm0 0"/><path d="m238.933594 375.464844h34.132812c4.714844 0 8.535156-3.820313 8.535156-8.53125 0-4.714844-3.820312-8.535156-8.535156-8.535156h-34.132812c-4.714844 0-8.535156 3.820312-8.535156 8.535156 0 4.710937 3.820312 8.53125 8.535156 8.53125zm0 0"/><path d="m102.398438 512c9.425781 0 17.066406-7.640625 17.066406-17.066406v-8.535156c0-32.988282-26.742188-59.730469-59.730469-59.730469-32.992187 0-59.734375 26.742187-59.734375 59.730469v8.535156c0 9.425781 7.640625 17.066406 17.066406 17.066406zm-85.332032-25.601562c.027344-20.265626 14.28125-37.730469 34.132813-41.8125v16.214843c0 4.710938 3.820312 8.53125 8.535156 8.53125 4.710937 0 8.53125-3.820312 8.53125-8.53125v-16.214843c19.851563 4.082031 34.109375 21.546874 34.132813 41.8125v8.535156h-85.332032zm0 0"/><path d="m184.320312 73.292969c-17.230468 9.980469-26.007812 29.96875-21.691406 49.40625.832032 3.941406 4.308594 6.761719 8.335938 6.769531.597656 0 1.191406-.0625 1.777344-.1875 2.210937-.46875 4.152343-1.796875 5.386718-3.691406 1.234375-1.898438 1.667969-4.207032 1.199219-6.421875-2.71875-12.078125 2.609375-24.542969 13.21875-30.925781 4.039063-2.3125 5.476563-7.4375 3.234375-11.515626-2.246094-4.078124-7.34375-5.605468-11.460938-3.433593zm0 0"/><path d="m42.667969 34.132812c-4.714844 0-8.535157 3.820313-8.535157 8.535157v8.53125c0 4.714843 3.820313 8.535156 8.535157 8.535156 4.710937 0 8.53125-3.820313 8.53125-8.535156v-8.53125c0-4.714844-3.820313-8.535157-8.53125-8.535157zm0 0"/><path d="m42.667969 76.800781c-4.714844 0-8.535157 3.820313-8.535157 8.53125v51.203125c0 4.710938 3.820313 8.53125 8.535157 8.53125 4.710937 0 8.53125-3.820312 8.53125-8.53125v-51.203125c0-4.710937-3.820313-8.53125-8.53125-8.53125zm0 0"/><path d="m332.800781 315.734375c.472657 0 .949219-.039063 1.414063-.121094 4.648437-.777343 7.785156-5.175781 7.007812-9.820312-6.878906-41.277344 31.308594-49.152344 35.6875-49.914063 4.609375-.820312 7.695313-5.203125 6.914063-9.820312-.777344-4.617188-5.132813-7.742188-9.757813-7.003906-10.140625 2.023437-19.738281 6.171874-28.160156 12.175781-18.15625 12.980469-26.664062 35.65625-21.527344 57.378906.6875 4.113281 4.25 7.125 8.421875 7.125zm0 0"/></svg>