<svg height="495pt" viewBox="0 0 495.91261 495" width="495pt" xmlns="http://www.w3.org/2000/svg"><path d="m482.367188 175.503906-23.070313-23.0625c3.007813-7.417968 4.703125-15.503906 4.703125-23.984375v-3.3125l-92.6875-92.6875h-3.3125c-8.480469 0-16.566406 1.695313-23.976562 4.703125l-23.160157-23.152344c-8.734375-8.734374-20.359375-13.550781-33.015625-13.550781-12.359375 0-23.976562 4.816407-32.710937 13.550781l-175.136719 175.136719-27.710938-27.710937c-5.792968-5.792969-13.472656-8.976563-21.664062-8.976563-16.882812 0-30.625 13.734375-30.625 30.632813 0 8.175781 3.183594 15.863281 8.96875 21.65625l27.71875 27.710937-23.136719 23.136719c-8.734375 8.734375-13.550781 20.359375-13.550781 32.710938 0 12.351562 4.816406 23.976562 13.542969 32.710937l161.746093 161.738281c8.613282 8.621094 20.078126 13.429688 32.566407 13.550782h.433593c12.191407 0 24.101563-4.921876 32.726563-13.542969l241.34375-241.34375c8.671875-8.671875 13.488281-20.203125 13.550781-32.945313.066406-12.28125-4.871094-24.296875-13.542968-32.96875zm-34.480469-43.839844c-1.574219 23.921876-20.765625 43.105469-44.679688 44.6875l-83.09375-83.101562c1.574219-23.921875 20.765625-43.105469 44.679688-44.691406zm-207.886719 281.480469-32-32-31.847656 31.847657-124.6875-124.6875 20.535156-20.535157 84.054688 84.054688 54.144531 10.832031-10.832031-54.144531-84.054688-84.054688 172.6875-172.6875 20.703125 20.703125c-3.007813 7.414063-4.703125 15.503906-4.703125 23.984375v3.3125l92.6875 92.6875h3.3125c8.480469 0 16.566406-1.695312 23.976562-4.703125l20.710938 20.703125zm-19.398438 3.222657-25.074218-.117188 12.480468-12.480469zm-39.914062-103.910157-20.6875 20.6875-116.6875-116.6875 20.6875-20.6875zm9.121094 29.800781-13.578125-2.714843 10.867187-10.863281zm76.648437-316.9375c5.710938-5.710937 13.3125-8.863281 21.695313-8.863281 8.085937 0 15.6875 3.152344 21.398437 8.863281l20.058594 20.054688c-4.800781 3.617188-9.074219 7.890625-12.6875 12.6875l-28.921875-28.917969-184 184-12.6875-12.6875zm-250.457031 157.769532c0-8.074219 6.558594-14.632813 14.625-14.632813 3.847656 0 7.613281 1.558594 10.34375 4.289063l11.71875 11.710937-20.6875 20.6875-11.710938-11.710937c-2.769531-2.769532-4.289062-6.441406-4.289062-10.34375zm455.046875 47.007812-241.34375 241.34375c-5.710937 5.703125-13.335937 8.832032-21.992187 8.855469-7.976563-.074219-15.472657-3.222656-21.109376-8.855469l-161.746093-161.738281c-5.703125-5.710937-8.855469-13.3125-8.855469-21.398437 0-8.082032 3.152344-15.679688 8.855469-21.398438l23.144531-23.136719 12.6875 12.6875-31.847656 31.847657 143.832031 143.832031 70.625.335937 224.015625-224.015625-28.921875-28.921875c4.800781-3.613281 9.074219-7.886718 12.6875-12.6875l19.976563 19.96875c5.671874 5.671875 8.90625 13.535156 8.855468 22.039063-.046875 8.023437-3.191406 15.570312-8.863281 21.242187zm0 0"/><path d="m342.527344 178.769531-2.054688-.34375c-5.65625-.945312-10.785156-3.585937-14.832031-7.625-4.046875-4.046875-6.679687-9.167969-7.625-14.824219l-.34375-2.054687c-3.992187-24.027344-24.574219-41.464844-48.929687-41.464844-24.964844 0-46.140626 18.679688-49.238282 43.464844-1.96875 15.78125-9.703125 30.167969-21.785156 40.519531l-29.191406 25.015625c-5.414063 4.65625-8.527344 11.421875-8.527344 18.558594 0 13.480469 10.960938 24.441406 24.441406 24.441406h3.191406c4.246094 0 8.445313-1.113281 12.128907-3.226562l48.015625-27.4375c1.535156-.871094 3.277344-1.335938 5.046875-1.335938h1c5.609375 0 10.175781 4.566407 10.175781 10.160157-.007812 2.144531-.664062 4.191406-1.894531 5.925781l-33.457031 46.832031c-3.039063 4.265625-4.648438 9.28125-4.648438 14.519531v1.59375c0 13.769531 11.199219 24.96875 24.96875 24.96875 6.574219 0 13.007812-2.664062 17.65625-7.3125l33.605469-33.609375c9.976562-9.984375 23.183593-16.4375 37.203125-18.191406l3.09375-.382812c24.785156-3.105469 43.472656-24.28125 43.472656-49.25 0-24.359376-17.441406-44.933594-41.472656-48.941407zm-3.984375 82.3125-3.09375.382813c-17.519531 2.191406-34.058594 10.269531-46.527344 22.757812l-33.609375 33.609375c-1.671875 1.664063-3.984375 2.625-6.34375 2.625-4.945312 0-8.96875-4.023437-8.96875-8.96875v-1.59375c0-1.878906.574219-3.6875 1.664062-5.214843l33.457032-46.832032c3.175781-4.457031 4.871094-9.703125 4.878906-15.214844 0-14.433593-11.742188-26.175781-26.175781-26.175781h-1c-4.542969 0-9.03125 1.191407-12.984375 3.449219l-48.023438 27.4375c-1.273437.730469-2.710937 1.113281-4.183594 1.113281h-3.191406c-4.65625 0-8.441406-3.785156-8.441406-8.441406 0-2.472656 1.070312-4.808594 2.9375-6.40625l29.183594-25.015625c15.109375-12.945312 24.789062-30.953125 27.246094-50.679688 2.113281-16.792968 16.457031-29.457031 33.375-29.457031 16.496093 0 30.449218 11.816407 33.160156 28.09375l.34375 2.058594c1.496094 8.957031 5.683594 17.078125 12.097656 23.503906 6.417969 6.421875 14.542969 10.597657 23.503906 12.09375l2.0625.34375c16.273438 2.714844 28.089844 16.65625 28.089844 33.160157 0 16.921874-12.664062 31.265624-29.457031 33.371093zm0 0"/><path d="m383.589844 123.359375 11.316406-11.3125 11.308594 11.316406-11.3125 11.308594zm0 0"/><path d="m406.21875 145.996094 11.3125-11.3125 11.3125 11.3125-11.3125 11.316406zm0 0"/><path d="m360.964844 100.746094 11.3125-11.3125 11.316406 11.3125-11.316406 11.3125zm0 0"/><path d="m338.339844 78.113281 11.3125-11.3125 11.3125 11.3125-11.3125 11.316407zm0 0"/></svg>