<?xml version="1.0" encoding="iso-8859-1"?>
<!-- Generator: Adobe Illustrator 19.0.0, SVG Export Plug-In . SVG Version: 6.00 Build 0)  -->
<svg version="1.1" id="Layer_1" xmlns="http://www.w3.org/2000/svg" xmlns:xlink="http://www.w3.org/1999/xlink" x="0px" y="0px"
	 viewBox="0 0 512 512" style="enable-background:new 0 0 512 512;" xml:space="preserve">
<g>
	<g>
		<g>
			<path d="M247.98,19.951c6.182-3.238,13.148-4.95,20.145-4.95h13.849c19.98,0,37.319,13.538,42.166,32.919l0.268,1.073
				c4.491,17.961,6.392,36.444,5.651,54.944l-8.726,67.624c-0.53,4.108,2.371,7.868,6.479,8.398c0.326,0.042,0.649,0.063,0.97,0.063
				c3.714,0,6.94-2.759,7.429-6.541l8.768-67.949c0.027-0.215,0.046-0.431,0.055-0.648c0.835-20.042-1.208-40.07-6.072-59.526
				l-0.268-1.073c-6.521-26.074-29.845-44.284-56.72-44.284h-13.849c-9.412,0-18.785,2.304-27.106,6.663
				c-3.669,1.922-5.085,6.455-3.163,10.124S244.311,21.871,247.98,19.951z"/>
			<path d="M204.618,274.301c2.602,3.224,7.325,3.726,10.547,1.124c3.223-2.602,3.726-7.324,1.124-10.547
				c-11.392-14.109-28.32-22.201-46.444-22.201c-24.733,0-47.186,15.56-55.871,38.719l-6.202,16.537
				c-7.102,18.938-10.703,38.795-10.703,59.021c0,6.569-5.345,11.914-11.914,11.914c-20.519,0-37.971-15.346-40.597-35.695
				L15,104.089v-3.774c0-15.887,1.954-31.757,5.807-47.169l1.306-5.224c4.846-19.383,22.185-32.921,42.164-32.921h13.85
				c7.935,0,15.71,2.169,22.486,6.273c3.542,2.146,8.154,1.013,10.3-2.53c2.146-3.543,1.013-8.155-2.53-10.3
				C99.265,2.92,88.802,0.001,78.127,0.001h-13.85c-26.875,0-50.197,18.21-56.716,44.283l-1.306,5.224
				C2.104,66.108,0,83.203,0,100.315v4.256c0,0.321,0.021,0.642,0.062,0.96l29.621,229.562
				c3.588,27.807,27.437,48.775,55.474,48.775c14.84,0,26.914-12.074,26.914-26.914c0-18.421,3.279-36.507,9.748-53.755
				l6.202-16.537c6.501-17.337,23.31-28.985,41.826-28.985C183.414,257.676,196.088,263.736,204.618,274.301z"/>
			<path d="M102.996,73.631c-1.005,4.018,1.438,8.091,5.457,9.095c4.014,1.005,8.091-1.437,9.095-5.457l7.337-29.347
				c4.847-19.383,22.186-32.921,42.165-32.921h13.851c19.979,0,37.318,13.538,42.164,32.921l7.336,29.347
				c0.852,3.408,3.91,5.683,7.27,5.683c0.602,0,1.215-0.073,1.825-0.226c4.019-1.005,6.462-5.076,5.457-9.095l-7.336-29.347
				c-6.518-26.073-29.841-44.283-56.716-44.283H167.05c-26.875,0-50.197,18.21-56.716,44.283L102.996,73.631z"/>
			<path d="M489.454,293.881h-75.252v-75.253c-0.002-12.431-10.115-22.545-22.546-22.545h-75.229
				c-12.432,0-22.546,10.114-22.546,22.546v75.252h-75.253c-12.432,0-22.546,10.114-22.546,22.546v75.229
				c0,12.432,10.114,22.546,22.546,22.546h75.253v75.252c0,12.432,10.114,22.546,22.546,22.546h75.229
				c12.432,0,22.546-10.114,22.546-22.546v-75.252h75.252c12.432,0,22.546-10.114,22.546-22.546v-75.229
				C512,303.996,501.886,293.881,489.454,293.881z M497,391.655c0,4.161-3.385,7.546-7.546,7.546h-82.752
				c-4.143,0-7.5,3.358-7.5,7.5v82.752c0,4.161-3.385,7.546-7.546,7.546h-75.229c-4.161,0-7.546-3.385-7.546-7.546v-82.752
				c0-4.142-3.357-7.5-7.5-7.5h-82.753c-4.161,0-7.546-3.385-7.546-7.546v-75.229c0-4.161,3.385-7.546,7.546-7.546h82.753
				c4.143,0,7.5-3.358,7.5-7.5v-82.752c0-4.161,3.385-7.546,7.546-7.546h75.229c4.16,0,7.546,3.385,7.546,7.546v82.752
				c0,4.142,3.357,7.5,7.5,7.5h82.752c4.161,0,7.546,3.385,7.546,7.546h0V391.655z"/>
			<path d="M314.485,368.868h-63.339c-4.142,0-7.5,3.358-7.5,7.5c0,4.142,3.358,7.5,7.5,7.5h63.339
				c6.569,0,11.914,5.345,11.914,11.914v63.338c0,4.142,3.357,7.5,7.5,7.5s7.5-3.358,7.5-7.5v-63.338
				C341.399,380.941,329.326,368.868,314.485,368.868z"/>
		</g>
	</g>
</g>
<g>
</g>
<g>
</g>
<g>
</g>
<g>
</g>
<g>
</g>
<g>
</g>
<g>
</g>
<g>
</g>
<g>
</g>
<g>
</g>
<g>
</g>
<g>
</g>
<g>
</g>
<g>
</g>
<g>
</g>
</svg>
